<svg width="139" height="14" viewBox="0 0 139 14" fill="none" xmlns="http://www.w3.org/2000/svg">
<path d="M5.39 13.18C8.054 13.18 10.376 11.65 10.376 8.824V0.399999H7.712V8.77C7.712 10.12 6.632 10.804 5.39 10.804C4.148 10.804 3.05 10.12 3.05 8.77V0.399999H0.35V8.824C0.35 11.65 2.726 13.18 5.39 13.18ZM12.4826 6.7C12.4826 10.876 15.5786 13.18 18.9086 13.18C21.3206 13.18 23.5706 12.1 24.5246 9.562C24.9386 8.41 24.9746 7.294 24.9026 6.088H18.9986V8.302H22.4366C21.8966 10.192 20.6366 10.732 18.9086 10.732C16.6586 10.732 15.2186 9.094 15.2186 6.7C15.2186 4.45 16.5506 2.65 18.9086 2.65C20.3486 2.65 21.3566 3.136 21.9866 4.36H24.6326C23.9126 1.426 21.4106 0.219999 18.9086 0.219999C15.5966 0.219999 12.4826 2.524 12.4826 6.7ZM29.7361 0.399999H27.0361V13H34.9921V10.588H29.7361V0.399999ZM44.4613 0.399999H36.7393V13H44.6053V10.552H39.4573V7.672H44.1373V5.314H39.4573V2.758H44.4613V0.399999ZM51.63 8.5L50.226 4.45L48.534 0.399999H45.672V0.795999L51.09 13.108H52.206L57.57 0.795999V0.399999H54.708L53.016 4.468L51.684 8.5H51.63ZM70.8975 6.7C70.8975 2.47 67.7835 0.219999 64.4895 0.219999C61.1415 0.219999 58.0275 2.452 58.0275 6.7C58.0275 10.948 61.0695 13.18 64.4355 13.18C68.2515 13.18 70.8975 10.534 70.8975 6.7ZM60.7455 6.7C60.7455 4.036 62.5095 2.704 64.4895 2.704C66.4515 2.704 68.2155 4.018 68.2155 6.7C68.2155 9.454 66.4335 10.714 64.4715 10.714C62.4555 10.714 60.7455 9.454 60.7455 6.7ZM73.1264 0.417999V13H77.8064C81.8744 13 84.0344 9.886 83.9804 6.664C83.9804 3.46 81.8204 0.417999 77.8064 0.417999H73.1264ZM75.8084 10.57V2.848H77.7704C80.0564 2.848 81.2984 4.666 81.2984 6.682C81.2984 8.698 80.0924 10.57 77.7704 10.57H75.8084ZM98.3721 6.7C98.3721 2.47 95.2581 0.219999 91.9641 0.219999C88.6161 0.219999 85.5021 2.452 85.5021 6.7C85.5021 10.948 88.5441 13.18 91.9101 13.18C95.7261 13.18 98.3721 10.534 98.3721 6.7ZM88.2201 6.7C88.2201 4.036 89.9841 2.704 91.9641 2.704C93.9261 2.704 95.6901 4.018 95.6901 6.7C95.6901 9.454 93.9081 10.714 91.9461 10.714C89.9301 10.714 88.2201 9.454 88.2201 6.7ZM104.786 8.5L103.382 4.45L101.69 0.399999H98.8283V0.795999L104.246 13.108H105.362L110.726 0.795999V0.399999H107.864L106.172 4.468L104.84 8.5H104.786Z" fill="#65B748"/>
<path d="M112.639 13.195C113.25 13.195 113.718 12.792 113.718 12.207C113.718 11.583 113.25 11.193 112.639 11.193C112.028 11.193 111.56 11.583 111.56 12.207C111.56 12.792 112.028 13.195 112.639 13.195ZM122.588 13.026H123.173V3.9H121.223V9.061L116.114 3.861H115.503V13H117.44V7.8L122.588 13.026ZM130.856 3.9H125.279V13H130.96V11.232H127.242V9.152H130.622V7.449H127.242V5.603H130.856V3.9ZM134.33 5.59V13H136.215V5.59H138.633V3.9H131.899V5.59H134.33Z" fill="#434343"/>
</svg>
